<?xml version="1.0" encoding="UTF-8" standalone="no"?>
<!DOCTYPE svg PUBLIC "-//W3C//DTD SVG 1.1//EN" "http://www.w3.org/Graphics/SVG/1.1/DTD/svg11.dtd">
<svg width="100%" height="100%" viewBox="0 0 172 172" version="1.1" xmlns="http://www.w3.org/2000/svg" xmlns:xlink="http://www.w3.org/1999/xlink" xml:space="preserve" xmlns:serif="http://www.serif.com/" style="fill-rule:evenodd;clip-rule:evenodd;stroke-linejoin:round;stroke-miterlimit:2;">
    <g>
        <g transform="matrix(4.76926,0,0,4.34114,-58.3297,-189.492)">
            <ellipse cx="30.262" cy="63.461" rx="17.822" ry="19.58" style="fill:rgb(27,33,44);"/>
        </g>
        <path d="M111.322,111.157L111.322,41.029C111.322,37.01 109.105,34.792 105.086,34.792L91.365,34.792C87.346,34.792 85.128,37.01 85.128,41.029L85.128,74.333C85.128,75.271 94.165,79.626 94.401,80.547C101.286,107.449 95.897,128.98 89.37,129.985C100.042,130.513 101.216,135.644 93.267,132.138C94.483,117.784 99.228,117.812 112.869,131.61C112.986,131.729 115.666,137.351 115.833,137.351L148.05,137.351C152.069,137.351 154.286,135.134 154.286,131.115L154.286,117.394C154.286,113.375 152.069,111.157 148.05,111.157L111.322,111.157Z" style="fill:rgb(2,169,255);fill-rule:nonzero;"/>
        <path d="M54.365,34.792L18.331,137.351L46.327,137.351L52.425,119.611L82.915,119.611L88.875,137.351L116.732,137.351L80.836,34.792L54.365,34.792ZM58.8,96.882L67.531,68.47L77.094,96.882L58.8,96.882Z" style="fill:rgb(254,254,254);fill-rule:nonzero;"/>
    </g>
</svg>
